0
SECTION
2
HEADER
9
$INSUNITS
70
4
9
$ACADVER
1
AC1014
9
$HANDSEED
5
FFFF
0
ENDSEC
0
SECTION
2
TABLES
0
TABLE
2
VPORT
5
8
100
AcDbSymbolTable
0
ENDTAB
0
TABLE
2
LTYPE
5
5
100
AcDbSymbolTable
0
LTYPE
5
14
100
AcDbSymbolTableRecord
100
AcDbLinetypeTableRecord
2
BYBLOCK
70
0
0
LTYPE
5
15
100
AcDbSymbolTableRecord
100
AcDbLinetypeTableRecord
2
BYLAYER
70
0
0
ENDTAB
0
TABLE
2
LAYER
5
2
100
AcDbSymbolTable
70
2
0
LAYER
5
50
100
AcDbSymbolTableRecord
100
AcDbLayerTableRecord
2
0
70
0
6
CONTINUOUS
0
ENDTAB
0
TABLE
2
STYLE
5
3
100
AcDbSymbolTable
70
1
0
STYLE
5
11
100
AcDbSymbolTableRecord
100
AcDbTextStyleTableRecord
2
STANDARD
70
0
0
ENDTAB
0
TABLE
2
VIEW
5
6
100
AcDbSymbolTable
70
0
0
ENDTAB
0
TABLE
2
UCS
5
7
100
AcDbSymbolTable
70
0
0
ENDTAB
0
TABLE
2
APPID
5
9
100
AcDbSymbolTable
70
2
0
APPID
5
12
100
AcDbSymbolTableRecord
100
AcDbRegAppTableRecord
2
ACAD
70
0
0
ENDTAB
0
TABLE
2
DIMSTYLE
5
A
100
AcDbSymbolTable
70
1
0
ENDTAB
0
TABLE
2
BLOCK_RECORD
5
1
100
AcDbSymbolTable
70
1
0
BLOCK_RECORD
5
1F
100
AcDbSymbolTableRecord
100
AcDbBlockTableRecord
2
*MODEL_SPACE
0
BLOCK_RECORD
5
1B
100
AcDbSymbolTableRecord
100
AcDbBlockTableRecord
2
*PAPER_SPACE
0
ENDTAB
0
ENDSEC
0
SECTION
2
BLOCKS
0
BLOCK
5
20
100
AcDbEntity
100
AcDbBlockBegin
2
*MODEL_SPACE
0
ENDBLK
5
21
100
AcDbEntity
100
AcDbBlockEnd
0
BLOCK
5
1C
100
AcDbEntity
100
AcDbBlockBegin
2
*PAPER_SPACE
0
ENDBLK
5
1D
100
AcDbEntity
100
AcDbBlockEnd
0
ENDSEC
0
SECTION
2
ENTITIES
0
LWPOLYLINE
5
100
100
AcDbEntity
8
0
100
AcDbPolyline
90
12
70
1
43
0.0
10
43.000000998377807
20
67.999999940395369
10
43.000000998377807
20
65.999999940395369
10
45.000000998377807
20
65.999999940395369
10
45.000000998377807
20
63.999999940395369
10
47.000000998377807
20
63.999999940395369
10
47.000000998377807
20
65.999999940395369
10
49.000000998377814
20
65.999999940395369
10
49.000000998377814
20
67.999999940395369
10
47.000000998377807
20
67.999999940395369
10
47.000000998377807
20
69.999999940395384
10
45.000000998377807
20
69.999999940395384
10
45.000000998377807
20
67.999999940395369
0
LWPOLYLINE
5
101
100
AcDbEntity
8
0
100
AcDbPolyline
90
12
70
1
43
0.0
10
22.999999001622193
20
41.999999940395369
10
24.9999990016222
20
41.999999940395369
10
24.9999990016222
20
43.999999940395362
10
26.999999001622193
20
43.999999940395362
10
26.999999001622193
20
45.999999940395362
10
24.9999990016222
20
45.999999940395362
10
24.9999990016222
20
47.999999940395369
10
22.999999001622193
20
47.999999940395369
10
22.999999001622193
20
45.999999940395362
10
20.9999990016222
20
45.999999940395362
10
20.9999990016222
20
43.999999940395362
10
22.999999001622193
20
43.999999940395362
0
LWPOLYLINE
5
102
100
AcDbEntity
8
0
100
AcDbPolyline
90
12
70
1
43
0.0
10
45.000000998377807
20
45.999999940395362
10
43.0000009983778
20
45.999999940395362
10
43.0000009983778
20
43.999999940395362
10
45.000000998377807
20
43.999999940395362
10
45.000000998377807
20
41.999999940395369
10
47.0000009983778
20
41.999999940395369
10
47.0000009983778
20
43.999999940395362
10
49.000000998377814
20
43.999999940395362
10
49.000000998377814
20
45.999999940395362
10
47.0000009983778
20
45.999999940395362
10
47.0000009983778
20
47.999999940395369
10
45.000000998377807
20
47.999999940395369
0
LWPOLYLINE
5
103
100
AcDbEntity
8
0
100
AcDbPolyline
90
12
70
1
43
0.0
10
24.999999001622193
20
63.999999940395369
10
24.999999001622193
20
65.999999940395369
10
26.999999001622193
20
65.999999940395369
10
26.999999001622193
20
67.999999940395369
10
24.999999001622193
20
67.999999940395369
10
24.999999001622193
20
69.999999940395384
10
22.999999001622193
20
69.999999940395384
10
22.999999001622193
20
67.999999940395369
10
20.999999001622189
20
67.999999940395369
10
20.999999001622189
20
65.999999940395369
10
22.999999001622193
20
65.999999940395369
10
22.999999001622193
20
63.999999940395369
0
LWPOLYLINE
5
104
100
AcDbEntity
8
0
100
AcDbPolyline
90
4
70
1
43
0.0
10
41.5
20
50.500000000000007
10
28.500000000000007
20
50.500000000000007
10
28.500000000000007
20
47.500000000000007
10
41.5
20
47.500000000000007
0
LWPOLYLINE
5
105
100
AcDbEntity
8
0
100
AcDbPolyline
90
8
70
1
43
0.0
10
10.000000149011612
20
40.000000044703498
10
10.000000149011612
20
47.000000000000014
10
15.000000223517418
20
47.000000000000014
10
15.000000223517418
20
77.000000596046462
10
55.000000819563866
20
77.000000596046462
10
55.000000819054549
20
47.000000000000014
10
59.999999850988388
20
47.000000000000014
10
59.999999850988388
20
40.000000044703498
0
LWPOLYLINE
5
106
100
AcDbEntity
8
0
100
AcDbPolyline
90
4
70
1
43
0.0
10
55.000000819563866
20
77.000000596046462
10
15.000000223517418
20
77.000000596046462
10
15.000000223517418
20
10.000000149011612
10
55.000000819563866
20
10.000000149011612
0
LINE
5
107
100
AcDbEntity
8
0
100
AcDbLine
10
20.999999001622189
20
67.999999940395369
30
0
11
22.999999001622193
21
67.999999940395369
31
0
0
LINE
5
108
100
AcDbEntity
8
0
100
AcDbLine
10
22.999999001622193
20
69.999999940395384
30
0
11
24.999999001622193
21
69.999999940395384
31
0
0
LINE
5
109
100
AcDbEntity
8
0
100
AcDbLine
10
24.999999001622193
20
67.999999940395369
30
0
11
26.999999001622193
21
67.999999940395369
31
0
0
LINE
5
110
100
AcDbEntity
8
0
100
AcDbLine
10
26.999999001622193
20
65.999999940395369
30
0
11
24.999999001622193
21
65.999999940395369
31
0
0
LINE
5
111
100
AcDbEntity
8
0
100
AcDbLine
10
24.999999001622193
20
63.999999940395369
30
0
11
22.999999001622193
21
63.999999940395369
31
0
0
LINE
5
112
100
AcDbEntity
8
0
100
AcDbLine
10
22.999999001622193
20
65.999999940395369
30
0
11
20.999999001622189
21
65.999999940395369
31
0
0
LINE
5
113
100
AcDbEntity
8
0
100
AcDbLine
10
24.999999001622193
20
69.999999940395384
30
0
11
24.999999001622193
21
67.999999940395369
31
0
0
LINE
5
114
100
AcDbEntity
8
0
100
AcDbLine
10
26.999999001622193
20
67.999999940395369
30
0
11
26.999999001622193
21
65.999999940395369
31
0
0
LINE
5
115
100
AcDbEntity
8
0
100
AcDbLine
10
24.999999001622193
20
65.999999940395369
30
0
11
24.999999001622193
21
63.999999940395369
31
0
0
LINE
5
116
100
AcDbEntity
8
0
100
AcDbLine
10
22.999999001622193
20
63.999999940395369
30
0
11
22.999999001622193
21
65.999999940395369
31
0
0
LINE
5
117
100
AcDbEntity
8
0
100
AcDbLine
10
20.999999001622189
20
65.999999940395369
30
0
11
20.999999001622189
21
67.999999940395369
31
0
0
LINE
5
118
100
AcDbEntity
8
0
100
AcDbLine
10
22.999999001622193
20
67.999999940395369
30
0
11
22.999999001622193
21
69.999999940395384
31
0
0
LINE
5
119
100
AcDbEntity
8
0
100
AcDbLine
10
46.999999001622193
20
65.999999940395369
30
0
11
46.999999001622193
21
63.999999940395369
31
0
0
LWPOLYLINE
5
120
100
AcDbEntity
8
0
100
AcDbPolyline
90
12
70
1
43
0.0
10
46.999999001622193
20
65.999999940395369
10
48.9999990016222
20
65.999999940395369
10
48.9999990016222
20
67.999999940395369
10
46.999999001622193
20
67.999999940395369
10
46.999999001622193
20
69.999999940395384
10
44.999999001622193
20
69.999999940395384
10
44.999999001622193
20
67.999999940395369
10
42.999999001622193
20
67.999999940395369
10
42.999999001622193
20
65.999999940395369
10
44.999999001622193
20
65.999999940395369
10
44.999999001622193
20
63.999999940395369
10
46.999999001622193
20
63.999999940395369
0
LINE
5
121
100
AcDbEntity
8
0
100
AcDbLine
10
42.999999001622193
20
67.999999940395369
30
0
11
44.999999001622193
21
67.999999940395369
31
0
0
LINE
5
122
100
AcDbEntity
8
0
100
AcDbLine
10
46.999999001622193
20
63.999999940395369
30
0
11
44.999999001622193
21
63.999999940395369
31
0
0
LINE
5
123
100
AcDbEntity
8
0
100
AcDbLine
10
46.999999001622193
20
69.999999940395384
30
0
11
46.999999001622193
21
67.999999940395369
31
0
0
LINE
5
124
100
AcDbEntity
8
0
100
AcDbLine
10
48.9999990016222
20
67.999999940395369
30
0
11
48.9999990016222
21
65.999999940395369
31
0
0
LINE
5
125
100
AcDbEntity
8
0
100
AcDbLine
10
46.999999001622193
20
67.999999940395369
30
0
11
48.9999990016222
21
67.999999940395369
31
0
0
LINE
5
126
100
AcDbEntity
8
0
100
AcDbLine
10
44.999999001622193
20
67.999999940395369
30
0
11
44.999999001622193
21
69.999999940395384
31
0
0
LINE
5
127
100
AcDbEntity
8
0
100
AcDbLine
10
42.999999001622193
20
65.999999940395369
30
0
11
42.999999001622193
21
67.999999940395369
31
0
0
LINE
5
128
100
AcDbEntity
8
0
100
AcDbLine
10
44.999999001622193
20
63.999999940395369
30
0
11
44.999999001622193
21
65.999999940395369
31
0
0
LINE
5
129
100
AcDbEntity
8
0
100
AcDbLine
10
48.9999990016222
20
65.999999940395369
30
0
11
46.999999001622193
21
65.999999940395369
31
0
0
LINE
5
130
100
AcDbEntity
8
0
100
AcDbLine
10
44.999999001622193
20
65.999999940395369
30
0
11
42.999999001622193
21
65.999999940395369
31
0
0
LINE
5
131
100
AcDbEntity
8
0
100
AcDbLine
10
44.999999001622193
20
69.999999940395384
30
0
11
46.999999001622193
21
69.999999940395384
31
0
0
LWPOLYLINE
5
132
100
AcDbEntity
8
0
100
AcDbPolyline
90
12
70
1
43
0.0
10
49.000000998377814
20
45.999999940395369
10
47.000000998377807
20
45.999999940395369
10
47.000000998377807
20
47.999999940395377
10
45.000000998377807
20
47.999999940395377
10
45.000000998377807
20
45.999999940395369
10
43.000000998377807
20
45.999999940395369
10
43.000000998377807
20
43.999999940395369
10
45.000000998377807
20
43.999999940395369
10
45.000000998377807
20
41.999999940395369
10
47.000000998377807
20
41.999999940395369
10
47.000000998377807
20
43.999999940395369
10
49.000000998377814
20
43.999999940395369
0
LWPOLYLINE
5
133
100
AcDbEntity
8
0
100
AcDbPolyline
90
12
70
1
43
0.0
10
26.999999001622193
20
45.999999940395362
10
24.999999001622193
20
45.999999940395362
10
24.999999001622193
20
47.999999940395377
10
22.999999001622193
20
47.999999940395377
10
22.999999001622193
20
45.999999940395362
10
20.999999001622189
20
45.999999940395362
10
20.999999001622189
20
43.999999940395369
10
22.999999001622193
20
43.999999940395369
10
22.999999001622193
20
41.999999940395369
10
24.999999001622193
20
41.999999940395369
10
24.999999001622193
20
43.999999940395369
10
26.999999001622193
20
43.999999940395369
0
LINE
5
134
100
AcDbEntity
8
0
100
AcDbLine
10
44.999999001622193
20
41.999999940395369
30
0
11
44.999999001622193
21
43.999999940395369
31
0
0
LINE
5
135
100
AcDbEntity
8
0
100
AcDbLine
10
24.999999001622193
20
45.999999940395362
30
0
11
26.999999001622193
21
45.999999940395362
31
0
0
LINE
5
136
100
AcDbEntity
8
0
100
AcDbLine
10
22.999999001622193
20
47.999999940395377
30
0
11
24.999999001622193
21
47.999999940395377
31
0
0
LWPOLYLINE
5
137
100
AcDbEntity
8
0
100
AcDbPolyline
90
12
70
1
43
0.0
10
42.999999001622193
20
43.999999940395369
10
44.999999001622193
20
43.999999940395369
10
44.999999001622193
20
41.999999940395369
10
46.999999001622193
20
41.999999940395369
10
46.999999001622193
20
43.999999940395369
10
48.9999990016222
20
43.999999940395369
10
48.9999990016222
20
45.999999940395362
10
46.999999001622193
20
45.999999940395362
10
46.999999001622193
20
47.999999940395377
10
44.999999001622193
20
47.999999940395377
10
44.999999001622193
20
45.999999940395362
10
42.999999001622193
20
45.999999940395362
0
LINE
5
138
100
AcDbEntity
8
0
100
AcDbLine
10
26.999999001622193
20
43.999999940395369
30
0
11
24.999999001622193
21
43.999999940395369
31
0
0
LINE
5
139
100
AcDbEntity
8
0
100
AcDbLine
10
46.999999001622193
20
43.999999940395369
30
0
11
46.999999001622193
21
41.999999940395369
31
0
0
LINE
5
140
100
AcDbEntity
8
0
100
AcDbLine
10
20.999999001622189
20
45.999999940395362
30
0
11
22.999999001622193
21
45.999999940395362
31
0
0
LINE
5
141
100
AcDbEntity
8
0
100
AcDbLine
10
48.9999990016222
20
43.999999940395369
30
0
11
46.999999001622193
21
43.999999940395369
31
0
0
LINE
5
142
100
AcDbEntity
8
0
100
AcDbLine
10
24.999999001622193
20
47.999999940395377
30
0
11
24.999999001622193
21
45.999999940395362
31
0
0
LINE
5
143
100
AcDbEntity
8
0
100
AcDbLine
10
48.9999990016222
20
45.999999940395362
30
0
11
48.9999990016222
21
43.999999940395369
31
0
0
LINE
5
144
100
AcDbEntity
8
0
100
AcDbLine
10
20.999999001622189
20
43.999999940395369
30
0
11
20.999999001622189
21
45.999999940395362
31
0
0
LINE
5
145
100
AcDbEntity
8
0
100
AcDbLine
10
26.999999001622193
20
45.999999940395362
30
0
11
26.999999001622193
21
43.999999940395369
31
0
0
LINE
5
146
100
AcDbEntity
8
0
100
AcDbLine
10
22.999999001622193
20
41.999999940395369
30
0
11
22.999999001622193
21
43.999999940395369
31
0
0
LINE
5
147
100
AcDbEntity
8
0
100
AcDbLine
10
24.999999001622193
20
41.999999940395369
30
0
11
22.999999001622193
21
41.999999940395369
31
0
0
LINE
5
148
100
AcDbEntity
8
0
100
AcDbLine
10
22.999999001622193
20
43.999999940395369
30
0
11
20.999999001622189
21
43.999999940395369
31
0
0
LINE
5
149
100
AcDbEntity
8
0
100
AcDbLine
10
22.999999001622193
20
45.999999940395362
30
0
11
22.999999001622193
21
47.999999940395377
31
0
0
LINE
5
150
100
AcDbEntity
8
0
100
AcDbLine
10
24.999999001622193
20
43.999999940395369
30
0
11
24.999999001622193
21
41.999999940395369
31
0
0
LINE
5
151
100
AcDbEntity
8
0
100
AcDbLine
10
46.999999001622193
20
41.999999940395369
30
0
11
44.999999001622193
21
41.999999940395369
31
0
0
LINE
5
152
100
AcDbEntity
8
0
100
AcDbLine
10
44.999999001622193
20
45.999999940395362
30
0
11
44.999999001622193
21
47.999999940395377
31
0
0
LINE
5
153
100
AcDbEntity
8
0
100
AcDbLine
10
46.999999001622193
20
47.999999940395377
30
0
11
46.999999001622193
21
45.999999940395362
31
0
0
LINE
5
154
100
AcDbEntity
8
0
100
AcDbLine
10
44.999999001622193
20
47.999999940395377
30
0
11
46.999999001622193
21
47.999999940395377
31
0
0
LINE
5
155
100
AcDbEntity
8
0
100
AcDbLine
10
46.999999001622193
20
45.999999940395362
30
0
11
48.9999990016222
21
45.999999940395362
31
0
0
LINE
5
156
100
AcDbEntity
8
0
100
AcDbLine
10
44.999999001622193
20
43.999999940395369
30
0
11
42.999999001622193
21
43.999999940395369
31
0
0
LINE
5
157
100
AcDbEntity
8
0
100
AcDbLine
10
42.999999001622193
20
43.999999940395369
30
0
11
42.999999001622193
21
45.999999940395362
31
0
0
LINE
5
158
100
AcDbEntity
8
0
100
AcDbLine
10
42.999999001622193
20
45.999999940395362
30
0
11
44.999999001622193
21
45.999999940395362
31
0
0
LWPOLYLINE
5
159
100
AcDbEntity
8
0
100
AcDbPolyline
90
12
70
1
43
0.0
10
49.000000998377814
20
30.999999940395373
10
47.000000998377807
20
30.999999940395373
10
47.000000998377807
20
32.999999940395377
10
45.000000998377807
20
32.999999940395377
10
45.000000998377807
20
30.999999940395373
10
43.000000998377807
20
30.999999940395373
10
43.000000998377807
20
28.999999940395369
10
45.000000998377807
20
28.999999940395369
10
45.000000998377807
20
26.999999940395369
10
47.000000998377807
20
26.999999940395369
10
47.000000998377807
20
28.999999940395369
10
49.000000998377814
20
28.999999940395369
0
LWPOLYLINE
5
160
100
AcDbEntity
8
0
100
AcDbPolyline
90
12
70
1
43
0.0
10
26.999999001622193
20
30.999999940395362
10
24.999999001622193
20
30.999999940395362
10
24.999999001622193
20
32.999999940395377
10
22.999999001622193
20
32.999999940395377
10
22.999999001622193
20
30.999999940395362
10
20.999999001622189
20
30.999999940395362
10
20.999999001622189
20
28.999999940395369
10
22.999999001622193
20
28.999999940395369
10
22.999999001622193
20
26.999999940395369
10
24.999999001622193
20
26.999999940395369
10
24.999999001622193
20
28.999999940395369
10
26.999999001622193
20
28.999999940395369
0
LINE
5
161
100
AcDbEntity
8
0
100
AcDbLine
10
44.999999001622193
20
26.999999940395369
30
0
11
44.999999001622193
21
28.999999940395369
31
0
0
LINE
5
162
100
AcDbEntity
8
0
100
AcDbLine
10
24.999999001622193
20
30.999999940395362
30
0
11
26.999999001622193
21
30.999999940395362
31
0
0
LINE
5
163
100
AcDbEntity
8
0
100
AcDbLine
10
22.999999001622193
20
32.999999940395377
30
0
11
24.999999001622193
21
32.999999940395377
31
0
0
LWPOLYLINE
5
164
100
AcDbEntity
8
0
100
AcDbPolyline
90
12
70
1
43
0.0
10
42.999999001622193
20
28.999999940395369
10
44.999999001622193
20
28.999999940395369
10
44.999999001622193
20
26.999999940395369
10
46.999999001622193
20
26.999999940395369
10
46.999999001622193
20
28.999999940395369
10
48.9999990016222
20
28.999999940395369
10
48.9999990016222
20
30.999999940395362
10
46.999999001622193
20
30.999999940395362
10
46.999999001622193
20
32.999999940395377
10
44.999999001622193
20
32.999999940395377
10
44.999999001622193
20
30.999999940395362
10
42.999999001622193
20
30.999999940395362
0
LINE
5
165
100
AcDbEntity
8
0
100
AcDbLine
10
26.999999001622193
20
28.999999940395369
30
0
11
24.999999001622193
21
28.999999940395369
31
0
0
LINE
5
166
100
AcDbEntity
8
0
100
AcDbLine
10
46.999999001622193
20
28.999999940395369
30
0
11
46.999999001622193
21
26.999999940395369
31
0
0
LINE
5
167
100
AcDbEntity
8
0
100
AcDbLine
10
20.999999001622189
20
30.999999940395362
30
0
11
22.999999001622193
21
30.999999940395362
31
0
0
LINE
5
168
100
AcDbEntity
8
0
100
AcDbLine
10
48.9999990016222
20
28.999999940395369
30
0
11
46.999999001622193
21
28.999999940395369
31
0
0
LINE
5
169
100
AcDbEntity
8
0
100
AcDbLine
10
24.999999001622193
20
32.999999940395377
30
0
11
24.999999001622193
21
30.999999940395362
31
0
0
LINE
5
170
100
AcDbEntity
8
0
100
AcDbLine
10
48.9999990016222
20
30.999999940395362
30
0
11
48.9999990016222
21
28.999999940395369
31
0
0
LINE
5
171
100
AcDbEntity
8
0
100
AcDbLine
10
20.999999001622189
20
28.999999940395369
30
0
11
20.999999001622189
21
30.999999940395362
31
0
0
LINE
5
172
100
AcDbEntity
8
0
100
AcDbLine
10
26.999999001622193
20
30.999999940395362
30
0
11
26.999999001622193
21
28.999999940395369
31
0
0
LINE
5
173
100
AcDbEntity
8
0
100
AcDbLine
10
22.999999001622193
20
26.999999940395369
30
0
11
22.999999001622193
21
28.999999940395369
31
0
0
LINE
5
174
100
AcDbEntity
8
0
100
AcDbLine
10
24.999999001622193
20
26.999999940395369
30
0
11
22.999999001622193
21
26.999999940395369
31
0
0
LINE
5
175
100
AcDbEntity
8
0
100
AcDbLine
10
22.999999001622193
20
28.999999940395369
30
0
11
20.999999001622189
21
28.999999940395369
31
0
0
LINE
5
176
100
AcDbEntity
8
0
100
AcDbLine
10
22.999999001622193
20
30.999999940395362
30
0
11
22.999999001622193
21
32.999999940395377
31
0
0
LINE
5
177
100
AcDbEntity
8
0
100
AcDbLine
10
24.999999001622193
20
28.999999940395369
30
0
11
24.999999001622193
21
26.999999940395369
31
0
0
LINE
5
178
100
AcDbEntity
8
0
100
AcDbLine
10
46.999999001622193
20
26.999999940395369
30
0
11
44.999999001622193
21
26.999999940395369
31
0
0
LINE
5
179
100
AcDbEntity
8
0
100
AcDbLine
10
44.999999001622193
20
30.999999940395362
30
0
11
44.999999001622193
21
32.999999940395377
31
0
0
LINE
5
180
100
AcDbEntity
8
0
100
AcDbLine
10
46.999999001622193
20
32.999999940395377
30
0
11
46.999999001622193
21
30.999999940395362
31
0
0
LINE
5
181
100
AcDbEntity
8
0
100
AcDbLine
10
44.999999001622193
20
32.999999940395377
30
0
11
46.999999001622193
21
32.999999940395377
31
0
0
LINE
5
182
100
AcDbEntity
8
0
100
AcDbLine
10
46.999999001622193
20
30.999999940395362
30
0
11
48.9999990016222
21
30.999999940395362
31
0
0
LINE
5
183
100
AcDbEntity
8
0
100
AcDbLine
10
44.999999001622193
20
28.999999940395369
30
0
11
42.999999001622193
21
28.999999940395369
31
0
0
LINE
5
184
100
AcDbEntity
8
0
100
AcDbLine
10
42.999999001622193
20
28.999999940395369
30
0
11
42.999999001622193
21
30.999999940395362
31
0
0
LINE
5
185
100
AcDbEntity
8
0
100
AcDbLine
10
42.999999001622193
20
30.999999940395362
30
0
11
44.999999001622193
21
30.999999940395362
31
0
0
ENDSEC
0
SECTION
2
OBJECTS
0
DICTIONARY
5
C
100
AcDbDictionary
3
ACAD_GROUP
350
D
3
ACAD_MLINESTYLE
350
17
0
DICTIONARY
5
D
100
AcDbDictionary
0
DICTIONARY
5
1A
330
C
100
AcDbDictionary
0
DICTIONARY
5
17
100
AcDbDictionary
0
ENDSEC
0
EOF
