0
SECTION
2
HEADER
9
$INSUNITS
70
4
9
$ACADVER
1
AC1014
9
$HANDSEED
5
FFFF
0
ENDSEC
0
SECTION
2
TABLES
0
TABLE
2
VPORT
5
8
100
AcDbSymbolTable
0
ENDTAB
0
TABLE
2
LTYPE
5
5
100
AcDbSymbolTable
0
LTYPE
5
14
100
AcDbSymbolTableRecord
100
AcDbLinetypeTableRecord
2
BYBLOCK
70
0
0
LTYPE
5
15
100
AcDbSymbolTableRecord
100
AcDbLinetypeTableRecord
2
BYLAYER
70
0
0
ENDTAB
0
TABLE
2
LAYER
5
2
100
AcDbSymbolTable
70
2
0
LAYER
5
50
100
AcDbSymbolTableRecord
100
AcDbLayerTableRecord
2
0
70
0
6
CONTINUOUS
0
ENDTAB
0
TABLE
2
STYLE
5
3
100
AcDbSymbolTable
70
1
0
STYLE
5
11
100
AcDbSymbolTableRecord
100
AcDbTextStyleTableRecord
2
STANDARD
70
0
0
ENDTAB
0
TABLE
2
VIEW
5
6
100
AcDbSymbolTable
70
0
0
ENDTAB
0
TABLE
2
UCS
5
7
100
AcDbSymbolTable
70
0
0
ENDTAB
0
TABLE
2
APPID
5
9
100
AcDbSymbolTable
70
2
0
APPID
5
12
100
AcDbSymbolTableRecord
100
AcDbRegAppTableRecord
2
ACAD
70
0
0
ENDTAB
0
TABLE
2
DIMSTYLE
5
A
100
AcDbSymbolTable
70
1
0
ENDTAB
0
TABLE
2
BLOCK_RECORD
5
1
100
AcDbSymbolTable
70
1
0
BLOCK_RECORD
5
1F
100
AcDbSymbolTableRecord
100
AcDbBlockTableRecord
2
*MODEL_SPACE
0
BLOCK_RECORD
5
1B
100
AcDbSymbolTableRecord
100
AcDbBlockTableRecord
2
*PAPER_SPACE
0
ENDTAB
0
ENDSEC
0
SECTION
2
BLOCKS
0
BLOCK
5
20
100
AcDbEntity
100
AcDbBlockBegin
2
*MODEL_SPACE
0
ENDBLK
5
21
100
AcDbEntity
100
AcDbBlockEnd
0
BLOCK
5
1C
100
AcDbEntity
100
AcDbBlockBegin
2
*PAPER_SPACE
0
ENDBLK
5
1D
100
AcDbEntity
100
AcDbBlockEnd
0
ENDSEC
0
SECTION
2
ENTITIES
0
LWPOLYLINE
5
100
100
AcDbEntity
8
0
100
AcDbPolyline
90
4
70
1
43
0.0
10
15.000000223517436
20
39.000000596046476
10
55.00000081956388
20
39.000000596046476
10
55.00000081956388
20
16.00000059604648
10
15.000000223517436
20
16.00000059604648
0
LINE
5
101
100
AcDbEntity
8
0
100
AcDbLine
10
1.9999990016221911
20
56.999999940395377
30
0
11
3.9999990016221929
21
56.999999940395377
31
0
0
LWPOLYLINE
5
102
100
AcDbEntity
8
0
100
AcDbPolyline
90
12
70
1
43
0.0
10
3.9999990016221929
20
54.999999940395369
10
3.9999990016221929
20
56.999999940395377
10
1.9999990016221911
20
56.999999940395377
10
1.9999990016221911
20
54.999999940395369
10
-9.9837781070144516e-07
20
54.999999940395369
10
-9.9837781070144516e-07
20
52.999999940395377
10
1.9999990016221911
20
52.999999940395377
10
1.9999990016221911
20
50.999999940395369
10
3.9999990016221929
20
50.999999940395369
10
3.9999990016221929
20
52.999999940395377
10
5.9999990016221947
20
52.999999940395377
10
5.9999990016221947
20
54.999999940395369
0
LINE
5
103
100
AcDbEntity
8
0
100
AcDbLine
10
-9.9837781070144516e-07
20
54.999999940395369
30
0
11
1.9999990016221911
21
54.999999940395369
31
0
0
LINE
5
104
100
AcDbEntity
8
0
100
AcDbLine
10
3.9999990016221929
20
56.999999940395377
30
0
11
3.9999990016221929
21
54.999999940395369
31
0
0
LINE
5
105
100
AcDbEntity
8
0
100
AcDbLine
10
3.9999990016221929
20
54.999999940395369
30
0
11
5.9999990016221947
21
54.999999940395369
31
0
0
LINE
5
106
100
AcDbEntity
8
0
100
AcDbLine
10
1.9999990016221911
20
54.999999940395369
30
0
11
1.9999990016221911
21
56.999999940395377
31
0
0
LINE
5
107
100
AcDbEntity
8
0
100
AcDbLine
10
3.9999990016221929
20
52.999999940395377
30
0
11
3.9999990016221929
21
50.999999940395369
31
0
0
LINE
5
108
100
AcDbEntity
8
0
100
AcDbLine
10
1.9999990016221911
20
52.999999940395377
30
0
11
-9.9837781070144516e-07
21
52.999999940395377
31
0
0
LINE
5
109
100
AcDbEntity
8
0
100
AcDbLine
10
1.9999990016221911
20
50.999999940395369
30
0
11
1.9999990016221911
21
52.999999940395377
31
0
0
LINE
5
110
100
AcDbEntity
8
0
100
AcDbLine
10
3.9999990016221929
20
50.999999940395369
30
0
11
1.9999990016221911
21
50.999999940395369
31
0
0
LINE
5
111
100
AcDbEntity
8
0
100
AcDbLine
10
5.9999990016221947
20
54.999999940395369
30
0
11
5.9999990016221947
21
52.999999940395377
31
0
0
LINE
5
112
100
AcDbEntity
8
0
100
AcDbLine
10
-9.9837781070144516e-07
20
52.999999940395377
30
0
11
-9.9837781070144516e-07
21
54.999999940395369
31
0
0
LINE
5
113
100
AcDbEntity
8
0
100
AcDbLine
10
5.9999990016221947
20
52.999999940395377
30
0
11
3.9999990016221929
21
52.999999940395377
31
0
0
LWPOLYLINE
5
114
100
AcDbEntity
8
0
100
AcDbPolyline
90
4
70
1
43
0.0
10
55.00000081956388
20
39.000000596046476
10
15.000000223517436
20
39.000000596046476
10
15.000000223517436
20
16.00000059604648
10
55.00000081956388
20
16.00000059604648
0
LWPOLYLINE
5
115
100
AcDbEntity
8
0
100
AcDbPolyline
90
4
70
1
43
0.0
10
-14.999999776482564
20
-13.99999940395352
10
85.00000081956388
20
-13.999999403953529
10
85.00000081956388
20
69.000000596046476
10
-14.999999776482564
20
69.00000059604649
0
LINE
5
116
100
AcDbEntity
8
0
100
AcDbLine
10
35.000000521540656
20
39.000000596046476
30
0
11
35.000000521540656
21
16.00000059604648
31
0
0
LWPOLYLINE
5
117
100
AcDbEntity
8
0
100
AcDbPolyline
90
12
70
1
43
0.0
10
66.000002041459126
20
54.999999940395369
10
66.000002041459126
20
56.999999940395377
10
68.00000204145914
20
56.999999940395377
10
68.00000204145914
20
54.999999940395369
10
70.000002041459126
20
54.999999940395369
10
70.000002041459126
20
52.999999940395377
10
68.00000204145914
20
52.999999940395377
10
68.00000204145914
20
50.999999940395369
10
66.000002041459126
20
50.999999940395369
10
66.000002041459126
20
52.999999940395377
10
64.000002041459126
20
52.999999940395377
10
64.000002041459126
20
54.999999940395369
0
LINE
5
118
100
AcDbEntity
8
0
100
AcDbLine
10
70.000002041459126
20
52.999999940395377
30
0
11
70.000002041459126
21
54.999999940395369
31
0
0
LINE
5
119
100
AcDbEntity
8
0
100
AcDbLine
10
68.00000204145914
20
52.999999940395377
30
0
11
70.000002041459126
21
52.999999940395377
31
0
0
LINE
5
120
100
AcDbEntity
8
0
100
AcDbLine
10
64.000002041459126
20
54.999999940395369
30
0
11
64.000002041459126
21
52.999999940395377
31
0
0
LINE
5
121
100
AcDbEntity
8
0
100
AcDbLine
10
68.00000204145914
20
50.999999940395369
30
0
11
68.00000204145914
21
52.999999940395377
31
0
0
LINE
5
122
100
AcDbEntity
8
0
100
AcDbLine
10
66.000002041459126
20
54.999999940395369
30
0
11
64.000002041459126
21
54.999999940395369
31
0
0
LINE
5
123
100
AcDbEntity
8
0
100
AcDbLine
10
66.000002041459126
20
50.999999940395369
30
0
11
68.00000204145914
21
50.999999940395369
31
0
0
LINE
5
124
100
AcDbEntity
8
0
100
AcDbLine
10
70.000002041459126
20
54.999999940395369
30
0
11
68.00000204145914
21
54.999999940395369
31
0
0
LINE
5
125
100
AcDbEntity
8
0
100
AcDbLine
10
66.000002041459126
20
52.999999940395377
30
0
11
66.000002041459126
21
50.999999940395369
31
0
0
LINE
5
126
100
AcDbEntity
8
0
100
AcDbLine
10
64.000002041459126
20
52.999999940395377
30
0
11
66.000002041459126
21
52.999999940395377
31
0
0
LINE
5
127
100
AcDbEntity
8
0
100
AcDbLine
10
66.000002041459126
20
56.999999940395377
30
0
11
66.000002041459126
21
54.999999940395369
31
0
0
LINE
5
128
100
AcDbEntity
8
0
100
AcDbLine
10
68.00000204145914
20
54.999999940395369
30
0
11
68.00000204145914
21
56.999999940395377
31
0
0
LINE
5
129
100
AcDbEntity
8
0
100
AcDbLine
10
68.00000204145914
20
56.999999940395377
30
0
11
66.000002041459126
21
56.999999940395377
31
0
0
LINE
5
130
100
AcDbEntity
8
0
100
AcDbLine
10
31.999999001622189
20
52.999999940395377
30
0
11
31.999999001622189
21
54.999999940395369
31
0
0
LWPOLYLINE
5
131
100
AcDbEntity
8
0
100
AcDbPolyline
90
12
70
1
43
0.0
10
33.999999001622193
20
50.999999940395369
10
35.999999001622193
20
50.999999940395369
10
35.999999001622193
20
52.999999940395377
10
37.999999001622193
20
52.999999940395377
10
37.999999001622193
20
54.999999940395369
10
35.999999001622193
20
54.999999940395369
10
35.999999001622193
20
56.999999940395377
10
33.999999001622193
20
56.999999940395377
10
33.999999001622193
20
54.999999940395369
10
31.999999001622189
20
54.999999940395369
10
31.999999001622189
20
52.999999940395377
10
33.999999001622193
20
52.999999940395377
0
LINE
5
132
100
AcDbEntity
8
0
100
AcDbLine
10
33.999999001622193
20
56.999999940395377
30
0
11
35.999999001622193
21
56.999999940395377
31
0
0
LINE
5
133
100
AcDbEntity
8
0
100
AcDbLine
10
37.999999001622193
20
52.999999940395377
30
0
11
35.999999001622193
21
52.999999940395377
31
0
0
LINE
5
134
100
AcDbEntity
8
0
100
AcDbLine
10
35.999999001622193
20
50.999999940395369
30
0
11
33.999999001622193
21
50.999999940395369
31
0
0
LINE
5
135
100
AcDbEntity
8
0
100
AcDbLine
10
35.999999001622193
20
52.999999940395377
30
0
11
35.999999001622193
21
50.999999940395369
31
0
0
LINE
5
136
100
AcDbEntity
8
0
100
AcDbLine
10
35.999999001622193
20
54.999999940395369
30
0
11
37.999999001622193
21
54.999999940395369
31
0
0
LINE
5
137
100
AcDbEntity
8
0
100
AcDbLine
10
37.999999001622193
20
54.999999940395369
30
0
11
37.999999001622193
21
52.999999940395377
31
0
0
LINE
5
138
100
AcDbEntity
8
0
100
AcDbLine
10
35.999999001622193
20
56.999999940395377
30
0
11
35.999999001622193
21
54.999999940395369
31
0
0
LINE
5
139
100
AcDbEntity
8
0
100
AcDbLine
10
33.999999001622193
20
54.999999940395369
30
0
11
33.999999001622193
21
56.999999940395377
31
0
0
LINE
5
140
100
AcDbEntity
8
0
100
AcDbLine
10
33.999999001622193
20
52.999999940395377
30
0
11
31.999999001622189
21
52.999999940395377
31
0
0
LINE
5
141
100
AcDbEntity
8
0
100
AcDbLine
10
31.999999001622189
20
54.999999940395369
30
0
11
33.999999001622193
21
54.999999940395369
31
0
0
LINE
5
142
100
AcDbEntity
8
0
100
AcDbLine
10
33.999999001622193
20
50.999999940395369
30
0
11
33.999999001622193
21
52.999999940395377
31
0
0
LWPOLYLINE
5
143
100
AcDbEntity
8
0
100
AcDbPolyline
90
12
70
1
43
0.0
10
3.9999990016221929
20
27.999999940395366
10
3.9999990016221929
20
29.999999940395377
10
1.9999990016221911
20
29.999999940395377
10
1.9999990016221911
20
27.999999940395366
10
-9.9837781070144516e-07
20
27.999999940395366
10
-9.9837781070144516e-07
20
25.999999940395373
10
1.9999990016221911
20
25.999999940395373
10
1.9999990016221911
20
23.999999940395369
10
3.9999990016221929
20
23.999999940395369
10
3.9999990016221929
20
25.999999940395373
10
5.9999990016221947
20
25.999999940395373
10
5.9999990016221947
20
27.999999940395366
0
LWPOLYLINE
5
144
100
AcDbEntity
8
0
100
AcDbPolyline
90
12
70
1
43
0.0
10
35.999999001622193
20
29.999999940395377
10
33.999999001622193
20
29.999999940395377
10
33.999999001622193
20
27.999999940395366
10
31.999999001622189
20
27.999999940395366
10
31.999999001622189
20
25.999999940395373
10
33.999999001622193
20
25.999999940395373
10
33.999999001622193
20
23.999999940395369
10
35.999999001622193
20
23.999999940395369
10
35.999999001622193
20
25.999999940395373
10
37.999999001622193
20
25.999999940395373
10
37.999999001622193
20
27.999999940395366
10
35.999999001622193
20
27.999999940395366
0
LINE
5
145
100
AcDbEntity
8
0
100
AcDbLine
10
33.999999001622193
20
27.999999940395366
30
0
11
33.999999001622193
21
29.999999940395377
31
0
0
LINE
5
146
100
AcDbEntity
8
0
100
AcDbLine
10
5.9999990016221947
20
27.999999940395366
30
0
11
5.9999990016221947
21
25.999999940395373
31
0
0
LINE
5
147
100
AcDbEntity
8
0
100
AcDbLine
10
37.999999001622193
20
25.999999940395373
30
0
11
35.999999001622193
21
25.999999940395373
31
0
0
LINE
5
148
100
AcDbEntity
8
0
100
AcDbLine
10
3.9999990016221929
20
25.999999940395373
30
0
11
3.9999990016221929
21
23.999999940395369
31
0
0
LWPOLYLINE
5
149
100
AcDbEntity
8
0
100
AcDbPolyline
90
12
70
1
43
0.0
10
70.000002041459126
20
25.999999940395373
10
68.00000204145914
20
25.999999940395373
10
68.00000204145914
20
23.999999940395369
10
66.000002041459126
20
23.999999940395369
10
66.000002041459126
20
25.999999940395373
10
64.000002041459126
20
25.999999940395373
10
64.000002041459126
20
27.999999940395366
10
66.000002041459126
20
27.999999940395366
10
66.000002041459126
20
29.999999940395377
10
68.00000204145914
20
29.999999940395377
10
68.00000204145914
20
27.999999940395366
10
70.000002041459126
20
27.999999940395366
0
LINE
5
150
100
AcDbEntity
8
0
100
AcDbLine
10
66.000002041459126
20
27.999999940395366
30
0
11
64.000002041459126
21
27.999999940395366
31
0
0
LINE
5
151
100
AcDbEntity
8
0
100
AcDbLine
10
1.9999990016221911
20
23.999999940395369
30
0
11
1.9999990016221911
21
25.999999940395373
31
0
0
LINE
5
152
100
AcDbEntity
8
0
100
AcDbLine
10
1.9999990016221911
20
25.999999940395373
30
0
11
-9.9837781070144516e-07
21
25.999999940395373
31
0
0
LINE
5
153
100
AcDbEntity
8
0
100
AcDbLine
10
35.999999001622193
20
25.999999940395373
30
0
11
35.999999001622193
21
23.999999940395369
31
0
0
LINE
5
154
100
AcDbEntity
8
0
100
AcDbLine
10
31.999999001622189
20
27.999999940395366
30
0
11
33.999999001622193
21
27.999999940395366
31
0
0
LINE
5
155
100
AcDbEntity
8
0
100
AcDbLine
10
37.999999001622193
20
27.999999940395366
30
0
11
37.999999001622193
21
25.999999940395373
31
0
0
LINE
5
156
100
AcDbEntity
8
0
100
AcDbLine
10
68.00000204145914
20
27.999999940395366
30
0
11
68.00000204145914
21
29.999999940395377
31
0
0
LINE
5
157
100
AcDbEntity
8
0
100
AcDbLine
10
31.999999001622189
20
25.999999940395373
30
0
11
31.999999001622189
21
27.999999940395366
31
0
0
LINE
5
158
100
AcDbEntity
8
0
100
AcDbLine
10
33.999999001622193
20
23.999999940395369
30
0
11
33.999999001622193
21
25.999999940395373
31
0
0
LINE
5
159
100
AcDbEntity
8
0
100
AcDbLine
10
33.999999001622193
20
29.999999940395377
30
0
11
35.999999001622193
21
29.999999940395377
31
0
0
LINE
5
160
100
AcDbEntity
8
0
100
AcDbLine
10
33.999999001622193
20
25.999999940395373
30
0
11
31.999999001622189
21
25.999999940395373
31
0
0
LINE
5
161
100
AcDbEntity
8
0
100
AcDbLine
10
66.000002041459126
20
25.999999940395373
30
0
11
66.000002041459126
21
23.999999940395369
31
0
0
LINE
5
162
100
AcDbEntity
8
0
100
AcDbLine
10
3.9999990016221929
20
27.999999940395366
30
0
11
5.9999990016221947
21
27.999999940395366
31
0
0
LINE
5
163
100
AcDbEntity
8
0
100
AcDbLine
10
64.000002041459126
20
27.999999940395366
30
0
11
64.000002041459126
21
25.999999940395373
31
0
0
LINE
5
164
100
AcDbEntity
8
0
100
AcDbLine
10
70.000002041459126
20
25.999999940395373
30
0
11
70.000002041459126
21
27.999999940395366
31
0
0
LINE
5
165
100
AcDbEntity
8
0
100
AcDbLine
10
1.9999990016221911
20
29.999999940395377
30
0
11
3.9999990016221929
21
29.999999940395377
31
0
0
LINE
5
166
100
AcDbEntity
8
0
100
AcDbLine
10
68.00000204145914
20
29.999999940395377
30
0
11
66.000002041459126
21
29.999999940395377
31
0
0
LINE
5
167
100
AcDbEntity
8
0
100
AcDbLine
10
5.9999990016221947
20
25.999999940395373
30
0
11
3.9999990016221929
21
25.999999940395373
31
0
0
LINE
5
168
100
AcDbEntity
8
0
100
AcDbLine
10
66.000002041459126
20
29.999999940395377
30
0
11
66.000002041459126
21
27.999999940395366
31
0
0
LINE
5
169
100
AcDbEntity
8
0
100
AcDbLine
10
3.9999990016221929
20
23.999999940395369
30
0
11
1.9999990016221911
21
23.999999940395369
31
0
0
LINE
5
170
100
AcDbEntity
8
0
100
AcDbLine
10
35.999999001622193
20
29.999999940395377
30
0
11
35.999999001622193
21
27.999999940395366
31
0
0
LINE
5
171
100
AcDbEntity
8
0
100
AcDbLine
10
35.999999001622193
20
23.999999940395369
30
0
11
33.999999001622193
21
23.999999940395369
31
0
0
LINE
5
172
100
AcDbEntity
8
0
100
AcDbLine
10
35.999999001622193
20
27.999999940395366
30
0
11
37.999999001622193
21
27.999999940395366
31
0
0
LINE
5
173
100
AcDbEntity
8
0
100
AcDbLine
10
3.9999990016221929
20
29.999999940395377
30
0
11
3.9999990016221929
21
27.999999940395366
31
0
0
LINE
5
174
100
AcDbEntity
8
0
100
AcDbLine
10
68.00000204145914
20
25.999999940395373
30
0
11
70.000002041459126
21
25.999999940395373
31
0
0
LINE
5
175
100
AcDbEntity
8
0
100
AcDbLine
10
64.000002041459126
20
25.999999940395373
30
0
11
66.000002041459126
21
25.999999940395373
31
0
0
LINE
5
176
100
AcDbEntity
8
0
100
AcDbLine
10
-9.9837781070144516e-07
20
27.999999940395366
30
0
11
1.9999990016221911
21
27.999999940395366
31
0
0
LINE
5
177
100
AcDbEntity
8
0
100
AcDbLine
10
1.9999990016221911
20
27.999999940395366
30
0
11
1.9999990016221911
21
29.999999940395377
31
0
0
LINE
5
178
100
AcDbEntity
8
0
100
AcDbLine
10
-9.9837781070144516e-07
20
25.999999940395373
30
0
11
-9.9837781070144516e-07
21
27.999999940395366
31
0
0
LINE
5
179
100
AcDbEntity
8
0
100
AcDbLine
10
70.000002041459126
20
27.999999940395366
30
0
11
68.00000204145914
21
27.999999940395366
31
0
0
LINE
5
180
100
AcDbEntity
8
0
100
AcDbLine
10
66.000002041459126
20
23.999999940395369
30
0
11
68.00000204145914
21
23.999999940395369
31
0
0
LINE
5
181
100
AcDbEntity
8
0
100
AcDbLine
10
68.00000204145914
20
23.999999940395369
30
0
11
68.00000204145914
21
25.999999940395373
31
0
0
LWPOLYLINE
5
182
100
AcDbEntity
8
0
100
AcDbPolyline
90
12
70
1
43
0.0
10
3.9999990016221929
20
3.9999999403953623
10
3.9999990016221929
20
5.999999940395373
10
1.9999990016221911
20
5.999999940395373
10
1.9999990016221911
20
3.9999999403953623
10
-9.9837781070144516e-07
20
3.9999999403953623
10
-9.9837781070144516e-07
20
1.9999999403953694
10
1.9999990016221911
20
1.9999999403953694
10
1.9999990016221911
20
-5.9604632340892749e-08
10
3.9999990016221929
20
-5.9604632340892749e-08
10
3.9999990016221929
20
1.9999999403953694
10
5.9999990016221947
20
1.9999999403953694
10
5.9999990016221947
20
3.9999999403953623
0
LWPOLYLINE
5
183
100
AcDbEntity
8
0
100
AcDbPolyline
90
12
70
1
43
0.0
10
35.999999001622193
20
5.999999940395373
10
33.999999001622193
20
5.999999940395373
10
33.999999001622193
20
3.9999999403953623
10
31.999999001622189
20
3.9999999403953623
10
31.999999001622189
20
1.9999999403953694
10
33.999999001622193
20
1.9999999403953694
10
33.999999001622193
20
-5.9604632340892749e-08
10
35.999999001622193
20
-5.9604632340892749e-08
10
35.999999001622193
20
1.9999999403953694
10
37.999999001622193
20
1.9999999403953694
10
37.999999001622193
20
3.9999999403953623
10
35.999999001622193
20
3.9999999403953623
0
LINE
5
184
100
AcDbEntity
8
0
100
AcDbLine
10
33.999999001622193
20
3.9999999403953623
30
0
11
33.999999001622193
21
5.999999940395373
31
0
0
LINE
5
185
100
AcDbEntity
8
0
100
AcDbLine
10
5.9999990016221947
20
3.9999999403953623
30
0
11
5.9999990016221947
21
1.9999999403953694
31
0
0
LINE
5
186
100
AcDbEntity
8
0
100
AcDbLine
10
37.999999001622193
20
1.9999999403953694
30
0
11
35.999999001622193
21
1.9999999403953694
31
0
0
LINE
5
187
100
AcDbEntity
8
0
100
AcDbLine
10
3.9999990016221929
20
1.9999999403953694
30
0
11
3.9999990016221929
21
-5.9604632340892749e-08
31
0
0
LWPOLYLINE
5
188
100
AcDbEntity
8
0
100
AcDbPolyline
90
12
70
1
43
0.0
10
70.000002041459126
20
1.9999999403953694
10
68.00000204145914
20
1.9999999403953694
10
68.00000204145914
20
-5.9604632340892749e-08
10
66.000002041459126
20
-5.9604632340892749e-08
10
66.000002041459126
20
1.9999999403953694
10
64.000002041459126
20
1.9999999403953694
10
64.000002041459126
20
3.9999999403953623
10
66.000002041459126
20
3.9999999403953623
10
66.000002041459126
20
5.999999940395373
10
68.00000204145914
20
5.999999940395373
10
68.00000204145914
20
3.9999999403953623
10
70.000002041459126
20
3.9999999403953623
0
LINE
5
189
100
AcDbEntity
8
0
100
AcDbLine
10
66.000002041459126
20
3.9999999403953623
30
0
11
64.000002041459126
21
3.9999999403953623
31
0
0
LINE
5
190
100
AcDbEntity
8
0
100
AcDbLine
10
1.9999990016221911
20
-5.9604632340892749e-08
30
0
11
1.9999990016221911
21
1.9999999403953694
31
0
0
LINE
5
191
100
AcDbEntity
8
0
100
AcDbLine
10
1.9999990016221911
20
1.9999999403953694
30
0
11
-9.9837781070144516e-07
21
1.9999999403953694
31
0
0
LINE
5
192
100
AcDbEntity
8
0
100
AcDbLine
10
35.999999001622193
20
1.9999999403953694
30
0
11
35.999999001622193
21
-5.9604632340892749e-08
31
0
0
LINE
5
193
100
AcDbEntity
8
0
100
AcDbLine
10
31.999999001622189
20
3.9999999403953623
30
0
11
33.999999001622193
21
3.9999999403953623
31
0
0
LINE
5
194
100
AcDbEntity
8
0
100
AcDbLine
10
37.999999001622193
20
3.9999999403953623
30
0
11
37.999999001622193
21
1.9999999403953694
31
0
0
LINE
5
195
100
AcDbEntity
8
0
100
AcDbLine
10
68.00000204145914
20
3.9999999403953623
30
0
11
68.00000204145914
21
5.999999940395373
31
0
0
LINE
5
196
100
AcDbEntity
8
0
100
AcDbLine
10
31.999999001622189
20
1.9999999403953694
30
0
11
31.999999001622189
21
3.9999999403953623
31
0
0
LINE
5
197
100
AcDbEntity
8
0
100
AcDbLine
10
33.999999001622193
20
-5.9604632340892749e-08
30
0
11
33.999999001622193
21
1.9999999403953694
31
0
0
LINE
5
198
100
AcDbEntity
8
0
100
AcDbLine
10
33.999999001622193
20
5.999999940395373
30
0
11
35.999999001622193
21
5.999999940395373
31
0
0
LINE
5
199
100
AcDbEntity
8
0
100
AcDbLine
10
33.999999001622193
20
1.9999999403953694
30
0
11
31.999999001622189
21
1.9999999403953694
31
0
0
LINE
5
200
100
AcDbEntity
8
0
100
AcDbLine
10
66.000002041459126
20
1.9999999403953694
30
0
11
66.000002041459126
21
-5.9604632340892749e-08
31
0
0
LINE
5
201
100
AcDbEntity
8
0
100
AcDbLine
10
3.9999990016221929
20
3.9999999403953623
30
0
11
5.9999990016221947
21
3.9999999403953623
31
0
0
LINE
5
202
100
AcDbEntity
8
0
100
AcDbLine
10
64.000002041459126
20
3.9999999403953623
30
0
11
64.000002041459126
21
1.9999999403953694
31
0
0
LINE
5
203
100
AcDbEntity
8
0
100
AcDbLine
10
70.000002041459126
20
1.9999999403953694
30
0
11
70.000002041459126
21
3.9999999403953623
31
0
0
LINE
5
204
100
AcDbEntity
8
0
100
AcDbLine
10
1.9999990016221911
20
5.999999940395373
30
0
11
3.9999990016221929
21
5.999999940395373
31
0
0
LINE
5
205
100
AcDbEntity
8
0
100
AcDbLine
10
68.00000204145914
20
5.999999940395373
30
0
11
66.000002041459126
21
5.999999940395373
31
0
0
LINE
5
206
100
AcDbEntity
8
0
100
AcDbLine
10
5.9999990016221947
20
1.9999999403953694
30
0
11
3.9999990016221929
21
1.9999999403953694
31
0
0
LINE
5
207
100
AcDbEntity
8
0
100
AcDbLine
10
66.000002041459126
20
5.999999940395373
30
0
11
66.000002041459126
21
3.9999999403953623
31
0
0
LINE
5
208
100
AcDbEntity
8
0
100
AcDbLine
10
3.9999990016221929
20
-5.9604632340892749e-08
30
0
11
1.9999990016221911
21
-5.9604632340892749e-08
31
0
0
LINE
5
209
100
AcDbEntity
8
0
100
AcDbLine
10
35.999999001622193
20
5.999999940395373
30
0
11
35.999999001622193
21
3.9999999403953623
31
0
0
LINE
5
210
100
AcDbEntity
8
0
100
AcDbLine
10
35.999999001622193
20
-5.9604632340892749e-08
30
0
11
33.999999001622193
21
-5.9604632340892749e-08
31
0
0
LINE
5
211
100
AcDbEntity
8
0
100
AcDbLine
10
35.999999001622193
20
3.9999999403953623
30
0
11
37.999999001622193
21
3.9999999403953623
31
0
0
LINE
5
212
100
AcDbEntity
8
0
100
AcDbLine
10
3.9999990016221929
20
5.999999940395373
30
0
11
3.9999990016221929
21
3.9999999403953623
31
0
0
LINE
5
213
100
AcDbEntity
8
0
100
AcDbLine
10
68.00000204145914
20
1.9999999403953694
30
0
11
70.000002041459126
21
1.9999999403953694
31
0
0
LINE
5
214
100
AcDbEntity
8
0
100
AcDbLine
10
64.000002041459126
20
1.9999999403953694
30
0
11
66.000002041459126
21
1.9999999403953694
31
0
0
LINE
5
215
100
AcDbEntity
8
0
100
AcDbLine
10
-9.9837781070144516e-07
20
3.9999999403953623
30
0
11
1.9999990016221911
21
3.9999999403953623
31
0
0
LINE
5
216
100
AcDbEntity
8
0
100
AcDbLine
10
1.9999990016221911
20
3.9999999403953623
30
0
11
1.9999990016221911
21
5.999999940395373
31
0
0
LINE
5
217
100
AcDbEntity
8
0
100
AcDbLine
10
-9.9837781070144516e-07
20
1.9999999403953694
30
0
11
-9.9837781070144516e-07
21
3.9999999403953623
31
0
0
LINE
5
218
100
AcDbEntity
8
0
100
AcDbLine
10
70.000002041459126
20
3.9999999403953623
30
0
11
68.00000204145914
21
3.9999999403953623
31
0
0
LINE
5
219
100
AcDbEntity
8
0
100
AcDbLine
10
66.000002041459126
20
-5.9604632340892749e-08
30
0
11
68.00000204145914
21
-5.9604632340892749e-08
31
0
0
LINE
5
220
100
AcDbEntity
8
0
100
AcDbLine
10
68.00000204145914
20
-5.9604632340892749e-08
30
0
11
68.00000204145914
21
1.9999999403953694
31
0
0
LWPOLYLINE
5
221
100
AcDbEntity
8
0
100
AcDbPolyline
90
4
70
1
43
0.0
10
-64.999999776482568
20
-63.999999403953524
10
135.00000081956389
20
-63.999999403953503
10
135.00000081956389
20
119.00000059604648
10
-64.999999776482568
20
119.00000059604645
0
ENDSEC
0
SECTION
2
OBJECTS
0
DICTIONARY
5
C
100
AcDbDictionary
3
ACAD_GROUP
350
D
3
ACAD_MLINESTYLE
350
17
0
DICTIONARY
5
D
100
AcDbDictionary
0
DICTIONARY
5
1A
330
C
100
AcDbDictionary
0
DICTIONARY
5
17
100
AcDbDictionary
0
ENDSEC
0
EOF
