0
SECTION
2
HEADER
9
$INSUNITS
70
4
9
$ACADVER
1
AC1014
9
$HANDSEED
5
FFFF
0
ENDSEC
0
SECTION
2
TABLES
0
TABLE
2
VPORT
5
8
100
AcDbSymbolTable
0
ENDTAB
0
TABLE
2
LTYPE
5
5
100
AcDbSymbolTable
0
LTYPE
5
14
100
AcDbSymbolTableRecord
100
AcDbLinetypeTableRecord
2
BYBLOCK
70
0
0
LTYPE
5
15
100
AcDbSymbolTableRecord
100
AcDbLinetypeTableRecord
2
BYLAYER
70
0
0
ENDTAB
0
TABLE
2
LAYER
5
2
100
AcDbSymbolTable
70
2
0
LAYER
5
50
100
AcDbSymbolTableRecord
100
AcDbLayerTableRecord
2
0
70
0
6
CONTINUOUS
0
ENDTAB
0
TABLE
2
STYLE
5
3
100
AcDbSymbolTable
70
1
0
STYLE
5
11
100
AcDbSymbolTableRecord
100
AcDbTextStyleTableRecord
2
STANDARD
70
0
0
ENDTAB
0
TABLE
2
VIEW
5
6
100
AcDbSymbolTable
70
0
0
ENDTAB
0
TABLE
2
UCS
5
7
100
AcDbSymbolTable
70
0
0
ENDTAB
0
TABLE
2
APPID
5
9
100
AcDbSymbolTable
70
2
0
APPID
5
12
100
AcDbSymbolTableRecord
100
AcDbRegAppTableRecord
2
ACAD
70
0
0
ENDTAB
0
TABLE
2
DIMSTYLE
5
A
100
AcDbSymbolTable
70
1
0
ENDTAB
0
TABLE
2
BLOCK_RECORD
5
1
100
AcDbSymbolTable
70
1
0
BLOCK_RECORD
5
1F
100
AcDbSymbolTableRecord
100
AcDbBlockTableRecord
2
*MODEL_SPACE
0
BLOCK_RECORD
5
1B
100
AcDbSymbolTableRecord
100
AcDbBlockTableRecord
2
*PAPER_SPACE
0
ENDTAB
0
ENDSEC
0
SECTION
2
BLOCKS
0
BLOCK
5
20
100
AcDbEntity
100
AcDbBlockBegin
2
*MODEL_SPACE
0
ENDBLK
5
21
100
AcDbEntity
100
AcDbBlockEnd
0
BLOCK
5
1C
100
AcDbEntity
100
AcDbBlockBegin
2
*PAPER_SPACE
0
ENDBLK
5
1D
100
AcDbEntity
100
AcDbBlockEnd
0
ENDSEC
0
SECTION
2
ENTITIES
0
LINE
5
100
100
AcDbEntity
8
0
100
AcDbLine
10
75
20
15.000000000000036
30
0
11
75
21
-14.999999999999998
31
0
0
LINE
5
101
100
AcDbEntity
8
0
100
AcDbLine
10
75
20
15.000000000000036
30
0
11
-125
21
14.999999999999989
31
0
0
LINE
5
102
100
AcDbEntity
8
0
100
AcDbLine
10
-125
20
0
30
0
11
35
21
0
31
0
0
LINE
5
103
100
AcDbEntity
8
0
100
AcDbLine
10
35
20
3.0000000000000004
30
0
11
35
21
-3.0000000000000004
31
0
0
LINE
5
104
100
AcDbEntity
8
0
100
AcDbLine
10
15
20
3.0000000000000004
30
0
11
55
21
3.0000000000000004
31
0
0
LINE
5
105
100
AcDbEntity
8
0
100
AcDbLine
10
15
20
3.0000000000000004
30
0
11
15
21
-3.0000000000000004
31
0
0
LINE
5
106
100
AcDbEntity
8
0
100
AcDbLine
10
55
20
-3.0000000000000004
30
0
11
55
21
3.0000000000000004
31
0
0
LINE
5
107
100
AcDbEntity
8
0
100
AcDbLine
10
55.000199776482582
20
-15
30
0
11
55.000199776482582
21
-40.000000596046448
31
0
0
LINE
5
108
100
AcDbEntity
8
0
100
AcDbLine
10
55.000199776482582
20
-40.000000596046448
30
0
11
15.000000223517418
21
-40.000000596046448
31
0
0
LINE
5
109
100
AcDbEntity
8
0
100
AcDbLine
10
15.000000223517418
20
-40.000000596046448
30
0
11
15.000000223517418
21
-15
31
0
0
LINE
5
110
100
AcDbEntity
8
0
100
AcDbLine
10
35
20
-3.0000000000000004
30
0
11
35.000100000000003
21
-3.0000000000000004
31
0
0
LINE
5
111
100
AcDbEntity
8
0
100
AcDbLine
10
35.000100000000003
20
-3.0000000000000004
30
0
11
35.000100000000003
21
-10
31
0
0
LINE
5
112
100
AcDbEntity
8
0
100
AcDbLine
10
35.000100000000003
20
-10
30
0
11
35
21
-10
31
0
0
LINE
5
113
100
AcDbEntity
8
0
100
AcDbLine
10
35
20
-10
30
0
11
35
21
-3.0000000000000004
31
0
0
LINE
5
114
100
AcDbEntity
8
0
100
AcDbLine
10
29.0001
20
-3.0000000000000004
30
0
11
29.0001
21
-30
31
0
0
LINE
5
115
100
AcDbEntity
8
0
100
AcDbLine
10
40.999899999999997
20
-3.0000000000000004
30
0
11
40.999899999999997
21
-30
31
0
0
LINE
5
116
100
AcDbEntity
8
0
100
AcDbLine
10
29.0001
20
-30
30
0
11
40.999899999999997
21
-30
31
0
0
LINE
5
117
100
AcDbEntity
8
0
100
AcDbLine
10
55.000199776482582
20
-15
30
0
11
75
21
-14.999999999999998
31
0
0
LINE
5
118
100
AcDbEntity
8
0
100
AcDbLine
10
-125
20
-14.999999999999996
30
0
11
15.000000223517418
21
-15
31
0
0
LINE
5
119
100
AcDbEntity
8
0
100
AcDbLine
10
35
20
-10
30
0
11
35.000100000000003
21
-10
31
0
0
LINE
5
120
100
AcDbEntity
8
0
100
AcDbLine
10
29.0001
20
-3.0000000000000004
30
0
11
35.000100000000003
21
-3.0000000000000004
31
0
0
LINE
5
121
100
AcDbEntity
8
0
100
AcDbLine
10
40.999899999999997
20
-3.0000000000000004
30
0
11
42.000099999999996
21
-3.0000000000000004
31
0
0
LINE
5
122
100
AcDbEntity
8
0
100
AcDbLine
10
40.999899999999997
20
-3.0000000000000004
30
0
11
55
21
-3.0000000000000004
31
0
0
LINE
5
123
100
AcDbEntity
8
0
100
AcDbLine
10
15
20
-3.0000000000000004
30
0
11
29.0001
21
-3.0000000000000004
31
0
0
LINE
5
124
100
AcDbEntity
8
0
100
AcDbLine
10
35
20
-3.0000000000000004
30
0
11
35.000100000000003
21
-3.0000000000000004
31
0
0
LINE
5
125
100
AcDbEntity
8
0
100
AcDbLine
10
24.999999001622196
20
-6.9999999403953561
30
0
11
24.999999001622196
21
-4.9999999403953552
31
0
0
LINE
5
126
100
AcDbEntity
8
0
100
AcDbLine
10
26.9999990016222
20
-6.9999999403953561
30
0
11
26.9999990016222
21
-8.999999940395357
31
0
0
LINE
5
127
100
AcDbEntity
8
0
100
AcDbLine
10
22.999999001622196
20
-4.9999999403953552
30
0
11
22.999999001622196
21
-6.9999999403953561
31
0
0
LINE
5
128
100
AcDbEntity
8
0
100
AcDbLine
10
22.999999001622196
20
-10.999999940395357
30
0
11
22.999999001622196
21
-8.999999940395357
31
0
0
LINE
5
129
100
AcDbEntity
8
0
100
AcDbLine
10
24.999999001622196
20
-6.9999999403953561
30
0
11
26.9999990016222
21
-6.9999999403953561
31
0
0
LINE
5
130
100
AcDbEntity
8
0
100
AcDbLine
10
24.999999001622196
20
-8.999999940395357
30
0
11
24.999999001622196
21
-10.999999940395357
31
0
0
LINE
5
131
100
AcDbEntity
8
0
100
AcDbLine
10
20.999999001622193
20
-8.999999940395357
30
0
11
22.999999001622196
21
-8.999999940395357
31
0
0
LINE
5
132
100
AcDbEntity
8
0
100
AcDbLine
10
24.999999001622196
20
-8.999999940395357
30
0
11
24.999999001622196
21
-6.9999999403953561
31
0
0
LINE
5
133
100
AcDbEntity
8
0
100
AcDbLine
10
24.999999001622196
20
-6.9999999403953561
30
0
11
24.999999001622196
21
-8.999999940395357
31
0
0
LINE
5
134
100
AcDbEntity
8
0
100
AcDbLine
10
24.999999001622196
20
-8.999999940395357
30
0
11
22.999999001622196
21
-8.999999940395357
31
0
0
LINE
5
135
100
AcDbEntity
8
0
100
AcDbLine
10
22.999999001622196
20
-6.9999999403953561
30
0
11
20.999999001622193
21
-6.9999999403953561
31
0
0
LINE
5
136
100
AcDbEntity
8
0
100
AcDbLine
10
22.999999001622196
20
-8.999999940395357
30
0
11
22.999999001622196
21
-6.9999999403953561
31
0
0
LINE
5
137
100
AcDbEntity
8
0
100
AcDbLine
10
22.999999001622196
20
-6.9999999403953561
30
0
11
24.999999001622196
21
-6.9999999403953561
31
0
0
LINE
5
138
100
AcDbEntity
8
0
100
AcDbLine
10
22.999999001622196
20
-8.999999940395357
30
0
11
24.999999001622196
21
-8.999999940395357
31
0
0
LINE
5
139
100
AcDbEntity
8
0
100
AcDbLine
10
20.999999001622193
20
-6.9999999403953561
30
0
11
20.999999001622193
21
-8.999999940395357
31
0
0
LINE
5
140
100
AcDbEntity
8
0
100
AcDbLine
10
22.999999001622196
20
-6.9999999403953561
30
0
11
24.999999001622196
21
-6.9999999403953561
31
0
0
LINE
5
141
100
AcDbEntity
8
0
100
AcDbLine
10
26.9999990016222
20
-8.999999940395357
30
0
11
24.999999001622196
21
-8.999999940395357
31
0
0
LINE
5
142
100
AcDbEntity
8
0
100
AcDbLine
10
24.999999001622196
20
-10.999999940395357
30
0
11
22.999999001622196
21
-10.999999940395357
31
0
0
LINE
5
143
100
AcDbEntity
8
0
100
AcDbLine
10
22.999999001622196
20
-8.999999940395357
30
0
11
22.999999001622196
21
-6.9999999403953561
31
0
0
LINE
5
144
100
AcDbEntity
8
0
100
AcDbLine
10
24.999999001622196
20
-4.9999999403953552
30
0
11
22.999999001622196
21
-4.9999999403953552
31
0
0
LINE
5
145
100
AcDbEntity
8
0
100
AcDbLine
10
47.0000009983778
20
-10.999999940395357
30
0
11
47.0000009983778
21
-8.999999940395357
31
0
0
LINE
5
146
100
AcDbEntity
8
0
100
AcDbLine
10
47.0000009983778
20
-8.999999940395357
30
0
11
47.0000009983778
21
-6.9999999403953561
31
0
0
LINE
5
147
100
AcDbEntity
8
0
100
AcDbLine
10
45.000000998377807
20
-8.999999940395357
30
0
11
47.0000009983778
21
-8.999999940395357
31
0
0
LINE
5
148
100
AcDbEntity
8
0
100
AcDbLine
10
47.0000009983778
20
-6.9999999403953561
30
0
11
49.000000998377814
21
-6.9999999403953561
31
0
0
LINE
5
149
100
AcDbEntity
8
0
100
AcDbLine
10
45.000000998377807
20
-6.9999999403953561
30
0
11
45.000000998377807
21
-8.999999940395357
31
0
0
LINE
5
150
100
AcDbEntity
8
0
100
AcDbLine
10
43.0000009983778
20
-8.999999940395357
30
0
11
45.000000998377807
21
-8.999999940395357
31
0
0
LINE
5
151
100
AcDbEntity
8
0
100
AcDbLine
10
47.0000009983778
20
-4.9999999403953552
30
0
11
47.0000009983778
21
-6.9999999403953561
31
0
0
LINE
5
152
100
AcDbEntity
8
0
100
AcDbLine
10
45.000000998377807
20
-10.999999940395357
30
0
11
47.0000009983778
21
-10.999999940395357
31
0
0
LINE
5
153
100
AcDbEntity
8
0
100
AcDbLine
10
49.000000998377814
20
-8.999999940395357
30
0
11
47.0000009983778
21
-8.999999940395357
31
0
0
LINE
5
154
100
AcDbEntity
8
0
100
AcDbLine
10
47.0000009983778
20
-8.999999940395357
30
0
11
45.000000998377807
21
-8.999999940395357
31
0
0
LINE
5
155
100
AcDbEntity
8
0
100
AcDbLine
10
45.000000998377807
20
-4.9999999403953552
30
0
11
47.0000009983778
21
-4.9999999403953552
31
0
0
LINE
5
156
100
AcDbEntity
8
0
100
AcDbLine
10
47.0000009983778
20
-6.9999999403953561
30
0
11
45.000000998377807
21
-6.9999999403953561
31
0
0
LINE
5
157
100
AcDbEntity
8
0
100
AcDbLine
10
45.000000998377807
20
-8.999999940395357
30
0
11
45.000000998377807
21
-10.999999940395357
31
0
0
LINE
5
158
100
AcDbEntity
8
0
100
AcDbLine
10
45.000000998377807
20
-6.9999999403953561
30
0
11
43.0000009983778
21
-6.9999999403953561
31
0
0
LINE
5
159
100
AcDbEntity
8
0
100
AcDbLine
10
47.0000009983778
20
-8.999999940395357
30
0
11
47.0000009983778
21
-6.9999999403953561
31
0
0
LINE
5
160
100
AcDbEntity
8
0
100
AcDbLine
10
45.000000998377807
20
-8.999999940395357
30
0
11
45.000000998377807
21
-6.9999999403953561
31
0
0
LINE
5
161
100
AcDbEntity
8
0
100
AcDbLine
10
45.000000998377807
20
-6.9999999403953561
30
0
11
45.000000998377807
21
-4.9999999403953552
31
0
0
LINE
5
162
100
AcDbEntity
8
0
100
AcDbLine
10
49.000000998377814
20
-6.9999999403953561
30
0
11
49.000000998377814
21
-8.999999940395357
31
0
0
LINE
5
163
100
AcDbEntity
8
0
100
AcDbLine
10
43.0000009983778
20
-6.9999999403953561
30
0
11
43.0000009983778
21
-8.999999940395357
31
0
0
LINE
5
164
100
AcDbEntity
8
0
100
AcDbLine
10
47.0000009983778
20
-6.9999999403953561
30
0
11
45.000000998377807
21
-6.9999999403953561
31
0
0
LINE
5
165
100
AcDbEntity
8
0
100
AcDbLine
10
24.999999001622193
20
-30.999999940395359
30
0
11
24.999999001622193
21
-28.999999940395359
31
0
0
LINE
5
166
100
AcDbEntity
8
0
100
AcDbLine
10
26.999999001622193
20
-28.999999940395359
30
0
11
26.999999001622193
21
-30.999999940395359
31
0
0
LINE
5
167
100
AcDbEntity
8
0
100
AcDbLine
10
24.999999001622193
20
-28.999999940395359
30
0
11
26.999999001622193
21
-28.999999940395359
31
0
0
LINE
5
168
100
AcDbEntity
8
0
100
AcDbLine
10
22.999999001622193
20
-30.999999940395359
30
0
11
22.999999001622193
21
-28.999999940395359
31
0
0
LINE
5
169
100
AcDbEntity
8
0
100
AcDbLine
10
24.999999001622193
20
-28.999999940395359
30
0
11
24.999999001622193
21
-30.999999940395359
31
0
0
LINE
5
170
100
AcDbEntity
8
0
100
AcDbLine
10
24.999999001622193
20
-30.999999940395359
30
0
11
24.999999001622193
21
-32.999999940395362
31
0
0
LINE
5
171
100
AcDbEntity
8
0
100
AcDbLine
10
20.999999001622189
20
-30.999999940395359
30
0
11
22.999999001622193
21
-30.999999940395359
31
0
0
LINE
5
172
100
AcDbEntity
8
0
100
AcDbLine
10
22.999999001622193
20
-28.999999940395359
30
0
11
24.999999001622193
21
-28.999999940395359
31
0
0
LINE
5
173
100
AcDbEntity
8
0
100
AcDbLine
10
24.999999001622193
20
-32.999999940395362
30
0
11
22.999999001622193
21
-32.999999940395362
31
0
0
LINE
5
174
100
AcDbEntity
8
0
100
AcDbLine
10
20.999999001622189
20
-28.999999940395359
30
0
11
20.999999001622189
21
-30.999999940395359
31
0
0
LINE
5
175
100
AcDbEntity
8
0
100
AcDbLine
10
24.999999001622193
20
-26.999999940395362
30
0
11
22.999999001622193
21
-26.999999940395362
31
0
0
LINE
5
176
100
AcDbEntity
8
0
100
AcDbLine
10
26.999999001622193
20
-30.999999940395359
30
0
11
24.999999001622193
21
-30.999999940395359
31
0
0
LINE
5
177
100
AcDbEntity
8
0
100
AcDbLine
10
24.999999001622193
20
-30.999999940395359
30
0
11
22.999999001622193
21
-30.999999940395359
31
0
0
LINE
5
178
100
AcDbEntity
8
0
100
AcDbLine
10
22.999999001622193
20
-30.999999940395359
30
0
11
24.999999001622193
21
-30.999999940395359
31
0
0
LINE
5
179
100
AcDbEntity
8
0
100
AcDbLine
10
22.999999001622193
20
-32.999999940395362
30
0
11
22.999999001622193
21
-30.999999940395359
31
0
0
LINE
5
180
100
AcDbEntity
8
0
100
AcDbLine
10
22.999999001622193
20
-30.999999940395359
30
0
11
22.999999001622193
21
-28.999999940395359
31
0
0
LINE
5
181
100
AcDbEntity
8
0
100
AcDbLine
10
22.999999001622193
20
-26.999999940395362
30
0
11
22.999999001622193
21
-28.999999940395359
31
0
0
LINE
5
182
100
AcDbEntity
8
0
100
AcDbLine
10
22.999999001622193
20
-28.999999940395359
30
0
11
24.999999001622193
21
-28.999999940395359
31
0
0
LINE
5
183
100
AcDbEntity
8
0
100
AcDbLine
10
22.999999001622193
20
-28.999999940395359
30
0
11
20.999999001622189
21
-28.999999940395359
31
0
0
LINE
5
184
100
AcDbEntity
8
0
100
AcDbLine
10
24.999999001622193
20
-28.999999940395359
30
0
11
24.999999001622193
21
-26.999999940395362
31
0
0
LINE
5
185
100
AcDbEntity
8
0
100
AcDbLine
10
47.000000998377807
20
-30.999999940395362
30
0
11
47.000000998377807
21
-28.999999940395362
31
0
0
LINE
5
186
100
AcDbEntity
8
0
100
AcDbLine
10
49.000000998377814
20
-28.999999940395362
30
0
11
49.000000998377814
21
-30.999999940395362
31
0
0
LINE
5
187
100
AcDbEntity
8
0
100
AcDbLine
10
43.000000998377807
20
-28.999999940395362
30
0
11
43.000000998377807
21
-30.999999940395362
31
0
0
LINE
5
188
100
AcDbEntity
8
0
100
AcDbLine
10
47.000000998377807
20
-26.999999940395362
30
0
11
47.000000998377807
21
-28.999999940395362
31
0
0
LINE
5
189
100
AcDbEntity
8
0
100
AcDbLine
10
45.000000998377807
20
-30.999999940395362
30
0
11
45.000000998377807
21
-28.999999940395362
31
0
0
LINE
5
190
100
AcDbEntity
8
0
100
AcDbLine
10
49.000000998377814
20
-30.999999940395362
30
0
11
47.000000998377807
21
-30.999999940395362
31
0
0
LINE
5
191
100
AcDbEntity
8
0
100
AcDbLine
10
47.000000998377807
20
-28.999999940395362
30
0
11
49.000000998377814
21
-28.999999940395362
31
0
0
LINE
5
192
100
AcDbEntity
8
0
100
AcDbLine
10
47.000000998377807
20
-28.999999940395362
30
0
11
45.000000998377807
21
-28.999999940395362
31
0
0
LINE
5
193
100
AcDbEntity
8
0
100
AcDbLine
10
45.000000998377807
20
-28.999999940395362
30
0
11
45.000000998377807
21
-30.999999940395362
31
0
0
LINE
5
194
100
AcDbEntity
8
0
100
AcDbLine
10
45.000000998377807
20
-30.999999940395362
30
0
11
47.000000998377807
21
-30.999999940395362
31
0
0
LINE
5
195
100
AcDbEntity
8
0
100
AcDbLine
10
45.000000998377807
20
-28.999999940395362
30
0
11
45.000000998377807
21
-26.999999940395362
31
0
0
LINE
5
196
100
AcDbEntity
8
0
100
AcDbLine
10
45.000000998377807
20
-26.999999940395362
30
0
11
47.000000998377807
21
-26.999999940395362
31
0
0
LINE
5
197
100
AcDbEntity
8
0
100
AcDbLine
10
45.000000998377807
20
-30.999999940395362
30
0
11
45.000000998377807
21
-32.999999940395369
31
0
0
LINE
5
198
100
AcDbEntity
8
0
100
AcDbLine
10
47.000000998377807
20
-32.999999940395369
30
0
11
47.000000998377807
21
-30.999999940395362
31
0
0
LINE
5
199
100
AcDbEntity
8
0
100
AcDbLine
10
47.000000998377807
20
-30.999999940395362
30
0
11
45.000000998377807
21
-30.999999940395362
31
0
0
LINE
5
200
100
AcDbEntity
8
0
100
AcDbLine
10
47.000000998377807
20
-30.999999940395362
30
0
11
47.000000998377807
21
-28.999999940395362
31
0
0
LINE
5
201
100
AcDbEntity
8
0
100
AcDbLine
10
45.000000998377807
20
-28.999999940395362
30
0
11
43.000000998377807
21
-28.999999940395362
31
0
0
LINE
5
202
100
AcDbEntity
8
0
100
AcDbLine
10
47.000000998377807
20
-28.999999940395362
30
0
11
45.000000998377807
21
-28.999999940395362
31
0
0
LINE
5
203
100
AcDbEntity
8
0
100
AcDbLine
10
43.000000998377807
20
-30.999999940395362
30
0
11
45.000000998377807
21
-30.999999940395362
31
0
0
LINE
5
204
100
AcDbEntity
8
0
100
AcDbLine
10
45.000000998377807
20
-32.999999940395369
30
0
11
47.000000998377807
21
-32.999999940395369
31
0
0
LINE
5
205
100
AcDbEntity
8
0
100
AcDbLine
10
-125
20
7.0000007003545512
30
0
11
-125
21
-2.9999992996454483
31
0
0
LINE
5
206
100
AcDbEntity
8
0
100
AcDbLine
10
-125
20
7.0000007003545512
30
0
11
-130
21
7.000000700354553
31
0
0
LINE
5
207
100
AcDbEntity
8
0
100
AcDbLine
10
-125
20
-2.9999992996454483
30
0
11
-130
21
-2.9999992996454501
31
0
0
LINE
5
208
100
AcDbEntity
8
0
100
AcDbLine
10
-130
20
-2.9999992996454501
30
0
11
-130
21
7.000000700354553
31
0
0
LINE
5
209
100
AcDbEntity
8
0
100
AcDbLine
10
-125
20
14.999999999999989
30
0
11
-125
21
7.0000007003545512
31
0
0
LINE
5
210
100
AcDbEntity
8
0
100
AcDbLine
10
-125
20
-2.9999992996454483
30
0
11
-125
21
-14.999999999999996
31
0
0
LINE
5
211
100
AcDbEntity
8
0
100
AcDbLine
10
15
20
3.0000000000000004
30
0
11
14.999999999999998
21
15.000000000000009
31
0
0
LINE
5
212
100
AcDbEntity
8
0
100
AcDbLine
10
55
20
3.0000000000000004
30
0
11
55
21
15.000000000000018
31
0
0
ENDSEC
0
SECTION
2
OBJECTS
0
DICTIONARY
5
C
100
AcDbDictionary
3
ACAD_GROUP
350
D
3
ACAD_MLINESTYLE
350
17
0
DICTIONARY
5
D
100
AcDbDictionary
0
DICTIONARY
5
1A
330
C
100
AcDbDictionary
0
DICTIONARY
5
17
100
AcDbDictionary
0
ENDSEC
0
EOF
