0
SECTION
2
HEADER
9
$INSUNITS
70
4
9
$ACADVER
1
AC1014
9
$HANDSEED
5
FFFF
0
ENDSEC
0
SECTION
2
TABLES
0
TABLE
2
VPORT
5
8
100
AcDbSymbolTable
0
ENDTAB
0
TABLE
2
LTYPE
5
5
100
AcDbSymbolTable
0
LTYPE
5
14
100
AcDbSymbolTableRecord
100
AcDbLinetypeTableRecord
2
BYBLOCK
70
0
0
LTYPE
5
15
100
AcDbSymbolTableRecord
100
AcDbLinetypeTableRecord
2
BYLAYER
70
0
0
ENDTAB
0
TABLE
2
LAYER
5
2
100
AcDbSymbolTable
70
2
0
LAYER
5
50
100
AcDbSymbolTableRecord
100
AcDbLayerTableRecord
2
0
70
0
6
CONTINUOUS
0
ENDTAB
0
TABLE
2
STYLE
5
3
100
AcDbSymbolTable
70
1
0
STYLE
5
11
100
AcDbSymbolTableRecord
100
AcDbTextStyleTableRecord
2
STANDARD
70
0
0
ENDTAB
0
TABLE
2
VIEW
5
6
100
AcDbSymbolTable
70
0
0
ENDTAB
0
TABLE
2
UCS
5
7
100
AcDbSymbolTable
70
0
0
ENDTAB
0
TABLE
2
APPID
5
9
100
AcDbSymbolTable
70
2
0
APPID
5
12
100
AcDbSymbolTableRecord
100
AcDbRegAppTableRecord
2
ACAD
70
0
0
ENDTAB
0
TABLE
2
DIMSTYLE
5
A
100
AcDbSymbolTable
70
1
0
ENDTAB
0
TABLE
2
BLOCK_RECORD
5
1
100
AcDbSymbolTable
70
1
0
BLOCK_RECORD
5
1F
100
AcDbSymbolTableRecord
100
AcDbBlockTableRecord
2
*MODEL_SPACE
0
BLOCK_RECORD
5
1B
100
AcDbSymbolTableRecord
100
AcDbBlockTableRecord
2
*PAPER_SPACE
0
ENDTAB
0
ENDSEC
0
SECTION
2
BLOCKS
0
BLOCK
5
20
100
AcDbEntity
100
AcDbBlockBegin
2
*MODEL_SPACE
0
ENDBLK
5
21
100
AcDbEntity
100
AcDbBlockEnd
0
BLOCK
5
1C
100
AcDbEntity
100
AcDbBlockBegin
2
*PAPER_SPACE
0
ENDBLK
5
1D
100
AcDbEntity
100
AcDbBlockEnd
0
ENDSEC
0
SECTION
2
ENTITIES
0
LWPOLYLINE
5
100
100
AcDbEntity
8
0
100
AcDbPolyline
90
48
70
1
43
0.0
10
0.95000000000000306
20
11
10
-0.94999999999999696
20
11
10
-0.94999999999999807
20
17.756618484384919
42
0.46329754152004898
10
-3.2777777777777786
20
19.729576093761022
42
0.1152655634910312
10
-11.6803315065421
20
16.234834643361179
42
0.46329754152004909
10
-11.922402727970898
20
13.193040331632153
10
-7.1309100839216022
20
8.4292716989681296
10
-8.4705092374004618
20
7.0818763939448708
10
-13.252728989674921
20
11.836425788627611
42
0.46333372058444861
10
-16.29320541452249
20
11.576513391494498
42
0.11418311779771428
10
-19.722224504529507
20
3.2431567301337787
42
0.46333372058446226
10
-17.74519402777074
20
0.91863487861004745
10
-11.001662043679497
20
0.93055482195396555
10
-10.998303587454215
20
-0.96944220982576434
10
-17.750057854648041
20
-0.98137668697021452
42
0.46331096466252514
10
-19.71888313675921
20
-3.3127254317449233
42
0.107765055778163
10
-16.54951221069307
20
-11.221503800089227
42
0.46331096466252358
10
-13.515564940928986
20
-11.548036992173859
10
-8.6240724276007548
20
-6.8940463273390096
10
-7.3144026589478992
20
-8.2705509939045747
10
-12.20627888920237
20
-12.924906744648846
42
0.46330949953379519
10
-12.031039757774138
20
-15.971333033196423
42
0.12081578574522803
10
-3.277855468609681
20
-19.725239162994168
42
0.46330949953379535
10
-0.94999999768283816
20
-17.752294462498629
10
-0.94999999856419837
20
-11.000000000124
10
0.95000000143580166
20
-10.999999999876003
10
0.95000000231716175
20
-17.752294512937837
42
0.4633094993935874
10
3.277855472848104
20
-19.725239212977073
42
0.11574641625256304
10
11.709266188630171
20
-16.20871629197854
42
0.46330949939358756
10
11.945387625213053
20
-13.166403265960398
10
7.1475595048868872
20
-8.4151585323213691
10
8.4844924506361217
20
-7.0651176816171111
10
13.279679758735154
20
-11.813747243375863
42
0.46331978217170716
10
16.31958341199973
20
-11.547899744903331
42
0.11380829972475692
10
19.728586636894281
20
-3.2350673208005158
42
0.46331978217170694
10
17.750600020711598
20
-0.91143695867800256
10
11.002038021380358
20
-0.92609900988016347
10
10.997910055816927
20
0.97389650587778365
10
17.749116589659188
20
0.9885643026447638
42
0.46331246501208179
10
19.716995859665879
20
3.3207199860598724
42
0.107745919428061
10
16.545317451794574
20
11.226734938317577
42
0.46331246501208245
10
13.51125404141515
20
11.552247111368459
10
8.6217333294945444
20
6.8969713929436463
10
7.3115966975775617
20
8.2730317134635083
10
12.201893795474286
20
12.929046623108833
42
0.4633094995260284
10
12.025621263887121
20
15.975413291640944
42
0.12072974362291476
10
3.2778554711339014
20
19.725239165382749
42
0.46330949952602829
10
0.9500000000000024
20
17.752294465182679
0
LINE
5
101
100
AcDbEntity
8
0
100
AcDbLine
10
4.0413344371862662e-15
20
11
30
0
11
0
21
0
31
0
0
LINE
5
102
100
AcDbEntity
8
0
100
AcDbLine
10
7.9666650135360504
20
7.5850015532035764
30
0
11
0
21
0
31
0
0
LINE
5
103
100
AcDbEntity
8
0
100
AcDbLine
10
10.999974038598641
20
0.023898747998810144
30
0
11
0
21
0
31
0
0
LINE
5
104
100
AcDbEntity
8
0
100
AcDbLine
10
7.8160259777615035
20
-7.7401381069692379
30
0
11
0
21
0
31
0
0
LINE
5
105
100
AcDbEntity
8
0
100
AcDbLine
10
1.4358015440038525e-09
20
-11
30
0
11
0
21
0
31
0
0
LINE
5
106
100
AcDbEntity
8
0
100
AcDbLine
10
-7.9692375432743283
20
-7.5822986606217917
30
0
11
0
21
0
31
0
0
LINE
5
107
100
AcDbEntity
8
0
100
AcDbLine
10
-10.999982815566856
20
-0.019443693935899412
30
0
11
0
21
0
31
0
0
LINE
5
108
100
AcDbEntity
8
0
100
AcDbLine
10
-7.8007096606610302
20
7.7555740464565019
30
0
11
0
21
0
31
0
0
CIRCLE
5
109
100
AcDbEntity
8
0
100
AcDbCircle
10
0
20
0
30
0
40
2.0000000298023224
210
0
220
0
230
1
0
ENDSEC
0
SECTION
2
OBJECTS
0
DICTIONARY
5
C
100
AcDbDictionary
3
ACAD_GROUP
350
D
3
ACAD_MLINESTYLE
350
17
0
DICTIONARY
5
D
100
AcDbDictionary
0
DICTIONARY
5
1A
330
C
100
AcDbDictionary
0
DICTIONARY
5
17
100
AcDbDictionary
0
ENDSEC
0
EOF
