0
SECTION
2
HEADER
9
$INSUNITS
70
4
9
$ACADVER
1
AC1014
9
$HANDSEED
5
FFFF
0
ENDSEC
0
SECTION
2
TABLES
0
TABLE
2
VPORT
5
8
100
AcDbSymbolTable
0
ENDTAB
0
TABLE
2
LTYPE
5
5
100
AcDbSymbolTable
0
LTYPE
5
14
100
AcDbSymbolTableRecord
100
AcDbLinetypeTableRecord
2
BYBLOCK
70
0
0
LTYPE
5
15
100
AcDbSymbolTableRecord
100
AcDbLinetypeTableRecord
2
BYLAYER
70
0
0
ENDTAB
0
TABLE
2
LAYER
5
2
100
AcDbSymbolTable
70
2
0
LAYER
5
50
100
AcDbSymbolTableRecord
100
AcDbLayerTableRecord
2
0
70
0
6
CONTINUOUS
0
ENDTAB
0
TABLE
2
STYLE
5
3
100
AcDbSymbolTable
70
1
0
STYLE
5
11
100
AcDbSymbolTableRecord
100
AcDbTextStyleTableRecord
2
STANDARD
70
0
0
ENDTAB
0
TABLE
2
VIEW
5
6
100
AcDbSymbolTable
70
0
0
ENDTAB
0
TABLE
2
UCS
5
7
100
AcDbSymbolTable
70
0
0
ENDTAB
0
TABLE
2
APPID
5
9
100
AcDbSymbolTable
70
2
0
APPID
5
12
100
AcDbSymbolTableRecord
100
AcDbRegAppTableRecord
2
ACAD
70
0
0
ENDTAB
0
TABLE
2
DIMSTYLE
5
A
100
AcDbSymbolTable
70
1
0
ENDTAB
0
TABLE
2
BLOCK_RECORD
5
1
100
AcDbSymbolTable
70
1
0
BLOCK_RECORD
5
1F
100
AcDbSymbolTableRecord
100
AcDbBlockTableRecord
2
*MODEL_SPACE
0
BLOCK_RECORD
5
1B
100
AcDbSymbolTableRecord
100
AcDbBlockTableRecord
2
*PAPER_SPACE
0
ENDTAB
0
ENDSEC
0
SECTION
2
BLOCKS
0
BLOCK
5
20
100
AcDbEntity
100
AcDbBlockBegin
2
*MODEL_SPACE
0
ENDBLK
5
21
100
AcDbEntity
100
AcDbBlockEnd
0
BLOCK
5
1C
100
AcDbEntity
100
AcDbBlockBegin
2
*PAPER_SPACE
0
ENDBLK
5
1D
100
AcDbEntity
100
AcDbBlockEnd
0
ENDSEC
0
SECTION
2
ENTITIES
0
LWPOLYLINE
5
100
100
AcDbEntity
8
0
100
AcDbPolyline
90
48
70
1
43
0.0
10
0.90000000000000302
20
11
10
-0.89999999999999725
20
11
10
-0.89999999999999836
20
17.764852940567792
42
0.46244295411589081
10
-3.2222222222222232
20
19.738725489519769
42
0.11668293622590928
10
-11.725403768580858
20
16.202311762947602
42
0.46399079668078225
10
-11.955771042841388
20
13.156650783950221
10
-7.1416273162771766
20
8.4185717464722885
10
-8.4042442022839339
20
7.1356849240399267
10
-13.227564251539041
20
11.882795295988197
42
0.46094209746940934
10
-16.257569062998535
20
11.620359401614717
42
0.11584885000343512
10
-19.730731827529013
20
3.1685211078665438
42
0.46104350544012412
10
-17.760084720900654
20
0.85141189409260032
10
-10.993392483914322
20
0.8377003366523883
10
-10.997039872011538
20
-0.96229596794383754
10
-17.743567611882796
20
-0.94862527044682476
42
0.46391493693029368
10
-19.720575788281682
20
-3.2764115005285932
42
0.10892413832421942
10
-16.514721056204458
20
-11.264988689648781
42
0.46237862029064736
10
-13.484323732596335
20
-11.587334849412061
10
-8.5878523684123191
20
-6.9313519805324795
10
-7.3474964459282806
20
-8.2357741459217255
10
-12.243193661409787
20
-12.891020888144221
42
0.46255568276286319
10
-12.072813271107211
20
-15.934504445372419
42
0.1222250498129426
10
-3.2223765050130742
20
-19.730117634179365
42
0.46246630862361265
10
-0.90000232116666146
20
-17.756269953651138
10
-0.90000213319614486
20
-10.999999974960524
10
0.89999786680385452
20
-11.000000025039476
10
0.89999767883462001
20
-17.756223901683466
42
0.46246637313318623
10
3.2223721724383827
20
-19.730071642907824
42
0.11715403926044568
10
11.751745410903542
20
-16.17268961086214
42
0.46309375917659795
10
11.980427360126324
20
-13.130729899705543
10
7.1729544090551398
20
-8.3895778801900995
10
8.4368758231050265
20
-7.1079762809767786
10
13.250341636107294
20
-11.855038488596534
42
0.46184913725761034
10
16.284088461373074
20
-11.590816522812062
42
0.11521579359294959
10
19.733444131876503
20
-3.1795828936238606
42
0.46202995317015261
10
17.757507815215291
20
-0.86143357822609601
10
10.998229479593462
20
-0.86617617057493657
10
10.996966524629526
20
0.933823386354109
10
17.750244778765239
20
0.93856176879485942
42
0.46291558540331923
10
19.72198116786047
20
3.2652412930950874
42
0.10915121415311763
10
16.510583223774443
20
11.270269894656215
42
0.46228831455514335
10
13.480509385166313
20
11.592011429519751
10
8.5837077439550864
20
6.9353668849832424
10
7.3433031943297467
20
8.2397428098104211
10
12.238381059973085
20
12.894748119049616
42
0.46264725025929115
10
12.067406186404261
20
15.93858962922666
42
0.12213905327252145
10
3.2223740695646748
20
19.730109903200152
42
0.46246629949639251
10
0.90000000000000246
20
17.756262148363852
0
LINE
5
101
100
AcDbEntity
8
0
100
AcDbLine
10
4.0413344371862662e-15
20
11
30
0
11
0
21
0
31
0
0
LINE
5
102
100
AcDbEntity
8
0
100
AcDbLine
10
7.9635054691424179
20
7.5875548473968308
30
0
11
-0.0076807381347811839
21
0.0073048219086395234
31
0
0
LINE
5
103
100
AcDbEntity
8
0
100
AcDbLine
10
10.997598002111497
20
0.033823607889586188
30
0
11
-0.0023992902326685282
21
0.02610554977663675
31
0
0
LINE
5
104
100
AcDbEntity
8
0
100
AcDbLine
10
7.8049151160800845
20
-7.7487770805834399
30
0
11
-0.027094656890219719
21
-0.024812883611934258
31
0
0
LINE
5
105
100
AcDbEntity
8
0
100
AcDbLine
10
-2.1331961450506433e-06
20
-10.999999999999998
30
0
11
-1.8271580944632649e-06
21
-2.7420657054067446e-15
31
0
0
LINE
5
106
100
AcDbEntity
8
0
100
AcDbLine
10
-7.9676744071703016
20
-7.5835630632271034
30
0
11
0.0037943813195356409
21
-0.003610203602422792
31
0
0
LINE
5
107
100
AcDbEntity
8
0
100
AcDbLine
10
-10.995216177962931
20
-0.062297815645724751
30
0
11
0.0047612390140038168
21
-0.08458740957309642
31
0
0
LINE
5
108
100
AcDbEntity
8
0
100
AcDbLine
10
-7.7729357592805561
20
7.7771283352561058
30
0
11
0.066928155583920276
21
0.061136254103748421
31
0
0
CIRCLE
5
109
100
AcDbEntity
8
0
100
AcDbCircle
10
-0.0076807381347811839
20
0.0073048219086395234
30
0
40
2.0000000298023224
210
0
220
0
230
1
0
ENDSEC
0
SECTION
2
OBJECTS
0
DICTIONARY
5
C
100
AcDbDictionary
3
ACAD_GROUP
350
D
3
ACAD_MLINESTYLE
350
17
0
DICTIONARY
5
D
100
AcDbDictionary
0
DICTIONARY
5
1A
330
C
100
AcDbDictionary
0
DICTIONARY
5
17
100
AcDbDictionary
0
ENDSEC
0
EOF
